<svg id="Layer_1" enable-background="new 0 0 480 480" height="512" viewBox="0 0 480 480" width="512" xmlns="http://www.w3.org/2000/svg"><path d="m261.814 471.008-9.209-73.673c-.613-4.906-5.499-8.139-10.219-6.669-1.442.449-3.349.448-4.787-.004-4.71-1.481-9.59 1.776-10.203 6.674l-9.209 73.672c-.597 4.775 3.126 8.992 7.938 8.992h27.751c4.811 0 8.535-4.217 7.938-8.992zm-50.139-107.521-26.82-29.8c-.949-1.055-2.619-.098-2.331 1.205l10.155 46.086c.707 3.211 4.771 4.244 6.926 1.762l12.118-13.954c1.323-1.525 1.303-3.798-.048-5.299zm75.647 17.49 10.155-46.087c.294-1.333-1.402-2.236-2.331-1.204l-26.821 29.801c-1.351 1.501-1.371 3.774-.047 5.299l12.118 13.953c2.155 2.482 6.218 1.449 6.926-1.762zm-77.152 25.165c.49-3.921-4.398-6.103-6.989-3.119l-7.141 8.223c-4.308 4.961-12.442 2.88-13.853-3.524l-14.325-65.012c-.157-.711-.848-1.155-1.566-1.031-1.872.323-3.785.492-5.727.492-45.63 0-82.57 36.941-82.57 82.57v47.259c0 4.418 3.582 8 8 8h107.875c4.035 0 7.438-3.004 7.938-7.008zm109.26-63.972c-1.94 0-3.854-.168-5.727-.491-.718-.123-1.409.32-1.565 1.031l-14.325 65.011c-1.413 6.415-9.552 8.477-13.853 3.524l-7.141-8.223c-2.591-2.984-7.479-.802-6.989 3.119l8.357 66.85c.5 4.003 3.904 7.008 7.938 7.008h107.875c4.418 0 8-3.582 8-8v-47.26c0-45.629-36.942-82.569-82.57-82.569zm-106.471-12.041c-3.816-.859-6.49 3.66-3.873 6.567l24.964 27.734c3.18 3.54 8.72 3.54 11.9 0l24.964-27.734c2.617-2.907-.057-7.426-3.873-6.567-17.747 3.993-36.373 3.985-54.082 0zm159.041-242.129c0 102.139.071 95.41-.166 97.743-.564 5.559-8.834 5.092-8.833-.496.011-41.341.128-44.207-.462-47.817-2.048-14.119-16.186-23.485-30.19-19.58-18.71 5.23-32.34 7.49-35.36 7.76-37.918 1.698-47.042-18.539-90.39-28.95-46.343-11.128-90.14 24.029-89.85 71.22.033 5.329.113 14.236.125 15.683.048 5.734-8.592 6.06-8.843.331-.046-1.064-.031 5.467-.031-98.894 0-17.45 12.84-31.96 29.57-34.58 14.36-30.79 44.96-50.42 79.28-50.42h67.15c48.601 0 88 39.399 88 88zm-25 122.13c0 59-48 107-107 107s-107-48-107-107c0-17.446-.173-29.917-.25-42.34-.229-36.635 33.723-64.298 70.12-55.57 37.758 9.069 48.543 27.393 84.81 29.37 4.952 0 12.519 1.858 48.97-8.33 4.527-1.266 9.64 1.59 10.16 7.32.277 2.808.19 1.94.19 69.55z"/></svg>