<?xml version="1.0" encoding="iso-8859-1"?>
<!-- Generator: Adobe Illustrator 19.0.0, SVG Export Plug-In . SVG Version: 6.00 Build 0)  -->
<svg version="1.1" id="Capa_1" xmlns="http://www.w3.org/2000/svg" xmlns:xlink="http://www.w3.org/1999/xlink" x="0px" y="0px"
	 viewBox="0 0 512 512" style="enable-background:new 0 0 512 512;" xml:space="preserve">
<g>
	<g>
		<path d="M0,85.84v340.32h512V85.84H0z M482,396.16H30V239.27h452V396.16z M482,209.27H30v-29.3h452V209.27z M482,149.97H30v-34.13
			h452V149.97z"/>
	</g>
</g>
<g>
	<g>
		<rect x="76.69" y="311.06" width="86.78" height="30"/>
	</g>
</g>
<g>
	<g>
		<path d="M395.908,280.123c-7.968,0-15.761,2.105-22.603,5.971c-6.679-3.793-14.39-5.971-22.604-5.971
			c-25.327,0-45.932,20.605-45.932,45.933c0,25.328,20.604,45.932,45.931,45.932c8.214,0,15.925-2.178,22.604-5.97
			c6.842,3.865,14.635,5.97,22.604,5.97c25.327,0,45.932-20.604,45.932-45.932S421.236,280.123,395.908,280.123z M350.7,341.989
			c-8.786,0-15.932-7.146-15.932-15.932s7.147-15.933,15.932-15.933c8.785,0,15.933,7.147,15.933,15.933
			S359.486,341.989,350.7,341.989z M395.907,341.989c-0.7,0-1.388-0.06-2.069-0.147c1.807-4.924,2.795-10.241,2.795-15.784
			c0-5.543-0.987-10.861-2.795-15.785c0.681-0.089,1.369-0.149,2.069-0.149c8.785,0,15.932,7.147,15.932,15.933
			S404.693,341.989,395.907,341.989z"/>
	</g>
</g>
<g>
</g>
<g>
</g>
<g>
</g>
<g>
</g>
<g>
</g>
<g>
</g>
<g>
</g>
<g>
</g>
<g>
</g>
<g>
</g>
<g>
</g>
<g>
</g>
<g>
</g>
<g>
</g>
<g>
</g>
</svg>
